<svg height="242" viewBox="0 0 548 242" width="548" xmlns="http://www.w3.org/2000/svg"><mask id="a" fill="#fff"><path d="M0 .048h547.88v219.158H0z" fill-rule="evenodd"/></mask><mask id="b" fill="#fff"><path d="M0 241.309h547.879V0H0z" fill-rule="evenodd"/></mask><g fill="none" fill-rule="evenodd"><path d="M470.836 54.536h-55.913c-12.636 0-22.88 10.245-22.88 22.88 0 12.571 10.139 22.787 22.71 22.88l106.547.787c14.711.108 26.58 12.064 26.58 26.778 0 14.785-11.988 26.775-26.778 26.775H479.55c-25.39 0-45.973 20.58-45.973 45.973v18.597l-306.5-1.19c0-23.88-19.358-43.235-43.237-43.235H29.414C13.169 174.78 0 161.61 0 145.365c0-16.244 13.17-29.413 29.414-29.413h91.175c14.972 0 27.11-12.136 27.11-27.108 0-14.972-12.138-27.11-27.11-27.11H77.51c-17.035 0-30.842-13.807-30.842-30.84S60.474.047 77.51.047h393.326c15.046 0 27.244 12.198 27.244 27.244s-12.198 27.244-27.244 27.244z" fill="#f2f2f4" mask="url(#a)" transform="translate(0 21.309)"/><path d="M238.28 239.515V89.655c0-4.07-3.3-7.37-7.37-7.37H121.983a7.37 7.37 0 00-7.37 7.37v149.86z" fill="#dde9f2"/><path d="M228.182 239.515V89.655c0-4.07-2.798-7.37-6.249-7.37H129.58c-3.453 0-6.251 3.3-6.251 7.37v149.86z" fill="#fff"/><path d="M114.612 101.39V88.484a6.197 6.197 0 016.199-6.199h111.272a6.197 6.197 0 016.198 6.199v12.906z" fill="#dde9f2"/><path d="M116.406 194.742h-3.587V88.482c0-4.405 3.584-7.99 7.992-7.99h16.42v3.587h-16.42a4.408 4.408 0 00-4.405 4.403zm123.668-34.079h-3.587V88.482a4.408 4.408 0 00-4.405-4.403h-73.365v-3.587h73.365c4.407 0 7.992 3.585 7.992 7.99z" fill="#8c99aa"/><path d="M143.227 84.078h8.496v-3.587h-8.496zm-28.614 19.442h123.669v-3.587h-123.67zm14.202-8.839h2.877v-3.587h-2.877zm8.353 0h2.876v-3.587h-2.876zm8.35 0h2.877v-3.587h-2.877z" fill="#8c99aa" mask="url(#b)"/><path d="M131.18 151.702h90.532V115.99H131.18z" fill="#e6ebef" mask="url(#b)"/><g fill="#8c99aa"><path d="M186.926 19.812H176.46a1.794 1.794 0 010-3.587h10.467a1.794 1.794 0 010 3.587" mask="url(#b)"/><path d="M181.693 25.045c-.99 0-1.794-.803-1.794-1.793V12.785a1.794 1.794 0 013.587 0v10.467c0 .99-.803 1.793-1.793 1.793m306.264 181.592H477.49a1.794 1.794 0 010-3.587h10.467a1.794 1.794 0 010 3.587" mask="url(#b)"/><path d="M482.724 211.87c-.99 0-1.794-.803-1.794-1.793v-10.466a1.794 1.794 0 013.587 0v10.466c0 .99-.803 1.794-1.793 1.794m-15.453-101.575h-10.466a1.794 1.794 0 010-3.587h10.466a1.794 1.794 0 010 3.587" mask="url(#b)"/><path d="M462.038 115.53c-.99 0-1.793-.804-1.793-1.794V103.27a1.794 1.794 0 013.587 0v10.467c0 .99-.804 1.794-1.794 1.794M286.77 55.684a1.791 1.791 0 01-1.267-3.06l7.4-7.402a1.794 1.794 0 112.538 2.537l-7.404 7.399a1.78 1.78 0 01-1.267.526" mask="url(#b)"/><path d="M294.173 55.684a1.78 1.78 0 01-1.268-.526l-7.403-7.399a1.794 1.794 0 112.537-2.537l7.401 7.401a1.791 1.791 0 01-1.267 3.06M79.334 128.614a1.791 1.791 0 01-1.267-3.06l7.4-7.402a1.794 1.794 0 112.538 2.537l-7.404 7.4a1.78 1.78 0 01-1.267.525" mask="url(#b)"/><path d="M86.736 128.614a1.78 1.78 0 01-1.267-.526l-7.403-7.399a1.794 1.794 0 112.537-2.537l7.4 7.401a1.791 1.791 0 01-1.267 3.061m229.705-76.629h71.979v-3.587h-71.98zM43.983 76.782h64.774v-3.587H43.983zm361.381 33.515h43.448v-3.587h-43.448zM305.298 51.985h7.47v-3.587h-7.47zm198.115 90.3a2.991 2.991 0 11-5.984 0 2.991 2.991 0 015.984 0M53.677 88.828a2.995 2.995 0 01-2.991 2.994 2.993 2.993 0 010-5.985 2.994 2.994 0 012.991 2.991m373.511-36.782a1.955 1.955 0 11-3.91.001 1.955 1.955 0 013.91-.001m-314.52-17.942a1.957 1.957 0 01-3.912 0 1.956 1.956 0 013.912 0m-22.02 134.854a1.957 1.957 0 11-3.914-.002 1.957 1.957 0 013.914.002M324.746 88.83a2.606 2.606 0 01-2.604 2.605 2.606 2.606 0 010-5.21 2.606 2.606 0 012.604 2.606m36.623-86.227a2.604 2.604 0 11-5.209 0 2.604 2.604 0 015.209 0M185.703 46.49a2.604 2.604 0 11-5.207 0 2.604 2.604 0 015.207 0" mask="url(#b)"/></g><path d="M182.127 215.743h-.445c-1.956-6.742-8.166-11.675-15.54-11.675a16.11 16.11 0 00-8.73 2.57c-1.637-10.621-10.789-18.761-21.868-18.761-9.947 0-18.36 6.552-21.163 15.574a15.28 15.28 0 00-3.952-.535c-7.59 0-13.865 5.562-15.015 12.827h-2.478c-6.248 0-11.361 5.115-11.361 11.363v.837c0 6.248 5.113 11.361 11.361 11.361h89.191c6.248 0 11.361-5.113 11.361-11.361v-.837c0-6.248-5.113-11.363-11.361-11.363" fill="#e6ebef" mask="url(#b)"/><path d="M171.677 218.533h-.392c-1.725-5.942-7.2-10.292-13.7-10.292-2.836 0-5.474.84-7.695 2.267-1.442-9.362-9.51-16.54-19.28-16.54-8.766 0-16.183 5.777-18.656 13.73a13.39 13.39 0 00-3.484-.473c-6.689 0-12.22 4.902-13.234 11.308h-2.185c-5.51 0-10.015 4.508-10.015 10.015v.739c0 5.51 4.505 10.017 10.015 10.017h78.626c5.51 0 10.015-4.508 10.015-10.017v-.739c0-5.507-4.506-10.015-10.015-10.015" fill="#fff" mask="url(#b)"/><path d="M148.469 205.82c-3.09-4.756-8.312-7.6-13.972-7.6-2.994 0-5.929.804-8.494 2.322l-1.825-3.087a20.251 20.251 0 0110.319-2.821c6.88 0 13.226 3.453 16.98 9.235z" fill="#8c99aa" mask="url(#b)"/><path d="M129.887 241.097H92.473c-6.997 0-12.69-5.694-12.69-12.691v-.804c0-6.994 5.693-12.688 12.69-12.688h.916c2.044-8.042 9.897-13.52 18.485-12.083.382-.976.83-1.93 1.343-2.848a23.235 23.235 0 012.492-3.597 22.999 22.999 0 0117.627-8.202v3.587a19.422 19.422 0 00-14.884 6.928 19.653 19.653 0 00-2.102 3.032 19.646 19.646 0 00-1.595 3.718l-.512 1.65-1.669-.45c-7.616-2.058-14.797 3.01-15.952 10.338l-.242 1.514h-3.907c-5.02 0-9.104 4.084-9.104 9.101v.804c0 5.02 4.085 9.104 9.104 9.104h37.414z" fill="#8c99aa" mask="url(#b)"/><path d="M120.392 212.847h-3.587a6.1 6.1 0 00-6.093-6.093v-3.587c5.34 0 9.68 4.342 9.68 9.68" fill="#8c99aa" mask="url(#b)"/><path d="M145.98 179.173h72.291a3.395 3.395 0 013.396 3.395v56.067h-72.361a6.89 6.89 0 01-6.892-6.892v-49.007a3.565 3.565 0 013.566-3.563" fill="#f0f4f7" mask="url(#b)"/><path d="M223.461 240.429H148.64c-4.422 0-8.018-3.597-8.018-8.02v-50.017a5.02 5.02 0 015.014-5.012h4.878v3.587h-4.878c-.787 0-1.427.638-1.427 1.425v50.016a4.436 4.436 0 004.43 4.434h71.235v-54.6c0-.704-.571-1.275-1.274-1.275h-46.72v-3.587h46.72c2.68 0 4.861 2.18 4.861 4.861z" fill="#8c99aa" mask="url(#b)"/><path d="M170.803 156.92l-15.787 15.79v55.112a4.515 4.515 0 004.517 4.517h47.133a4.515 4.515 0 004.517-4.517v-66.385a4.516 4.516 0 00-4.517-4.517z" fill="#fff" mask="url(#b)"/><path d="M170.803 172.708v-15.79l-15.787 15.79z" fill="#f0f4f7" mask="url(#b)"/><path d="M169.225 174.502h-14.21v-3.587h13.995v-13.996h3.586v14.211a3.377 3.377 0 01-3.371 3.372" fill="#8c99aa" mask="url(#b)"/><path d="M206.666 234.133H159.53a6.318 6.318 0 01-6.31-6.31v-55.857l16.839-16.84h36.606c3.48 0 6.31 2.832 6.31 6.311v21.273h-3.586v-21.273a2.727 2.727 0 00-2.724-2.724h-35.121l-14.738 14.738v54.371a2.727 2.727 0 002.724 2.724h47.135z" fill="#8c99aa" mask="url(#b)"/><path d="M161.608 152.322l-15.79 15.79v55.114a4.518 4.518 0 004.518 4.517h47.135a4.518 4.518 0 004.517-4.517V156.84a4.518 4.518 0 00-4.517-4.517z" fill="#e6ebef" mask="url(#b)"/><path d="M161.608 168.11v-15.79l-15.79 15.79z" fill="#f0f4f7" mask="url(#b)"/><path d="M160.03 169.904h-14.208v-3.587h13.991V152.32h3.587v14.213a3.373 3.373 0 01-3.37 3.37m-6.63 7.704h40.167v-3.587H153.4zm0 8.955h40.167v-3.587H153.4zm0 8.958h40.167v-3.587H153.4zm0 8.956h40.167v-3.587H153.4z" fill="#8c99aa" mask="url(#b)"/><path d="M152.413 229.537h-2.076a6.318 6.318 0 01-6.31-6.31v-55.86l16.837-16.839h36.606c3.48 0 6.31 2.832 6.31 6.311v31.86h-3.586v-31.86a2.727 2.727 0 00-2.724-2.724h-35.12l-14.735 14.738v54.373a2.727 2.727 0 002.723 2.724h2.076z" fill="#8c99aa" mask="url(#b)"/><path d="M152.413 159.22l-15.79 15.787v55.115a4.518 4.518 0 004.518 4.517h47.135a4.518 4.518 0 004.517-4.517v-66.385a4.516 4.516 0 00-4.517-4.517z" fill="#fff" mask="url(#b)"/><path d="M152.413 175.006V159.22l-15.79 15.787z" fill="#f0f4f7" mask="url(#b)"/><path d="M150.835 176.8h-14.21v-3.587h13.994v-13.994h3.587v14.212a3.375 3.375 0 01-3.371 3.369m-6.63 7.703h40.167v-3.586h-40.167zm0 8.956h40.167v-3.587h-40.167zm0 8.955h40.167v-3.587h-40.167zm0 8.956h40.167v-3.587h-40.167z" fill="#8c99aa" mask="url(#b)"/><path d="M149.195 236.433h-8.054a6.318 6.318 0 01-6.31-6.31v-55.86l16.84-16.836h36.605a6.316 6.316 0 016.308 6.31V188.7h-3.586v-24.963a2.725 2.725 0 00-2.722-2.723h-35.12l-14.738 14.735v54.373a2.727 2.727 0 002.723 2.724h8.054z" fill="#8c99aa" mask="url(#b)"/><path d="M148.76 238.635h75.627a3.285 3.285 0 003.286-3.285v-46.954c0-1.513-1.23-2.74-2.743-2.74h-12.925c-.942 0-1.82.483-2.322 1.282l-3.336 5.301h-48.099a3.143 3.143 0 00-3.142 3.142v36.91c0 2.963-2.12 6.344-6.346 6.344" fill="#fff" mask="url(#b)"/><path d="M155.106 232.29v-5.347h72.566v8.406a3.285 3.285 0 01-3.283 3.285h-75.63c4.226 0 6.347-3.381 6.347-6.344" fill="#dde9f2" mask="url(#b)"/><path d="M224.388 240.429h-75.627v-3.587c3.34 0 4.55-2.724 4.55-4.55v-36.91a4.94 4.94 0 014.936-4.936h42.12v3.587h-42.12a1.35 1.35 0 00-1.348 1.348v36.91a8.498 8.498 0 01-1.33 4.55h68.82c.822 0 1.491-.669 1.491-1.491v-46.954a.95.95 0 00-.949-.947h-12.927v-3.587h12.927a4.541 4.541 0 014.536 4.534v46.954c0 2.8-2.278 5.079-5.079 5.079" fill="#8c99aa" mask="url(#b)"/><g fill="#8c99aa" mask="url(#b)"><path d="M238.28 160.682a40.057 40.057 0 00-2.924 3.108 40.013 40.013 0 00-4.292 6.199 39.466 39.466 0 00-2.731 6.002c-.44-.091-.878-.134-1.318-.206a15.243 15.243 0 00-3.788-.495v.139c-.16-.002-.325-.026-.485-.026-13.255 0-24.463 9.149-27.201 21.971h-2.753c-11.72 0-21.251 9.532-21.251 21.25v1.434c0 8.69 5.246 16.167 12.734 19.458h54.01zm1.794-1.548c-.595.507-1.208.987-1.777 1.53h1.777z"/></g><path d="M376.343 220.058v-1.435c0-11.53-9.232-20.945-20.694-21.242-4.041-11.841-15.335-20-27.93-20-4.769 0-9.439 1.16-13.655 3.369a39.447 39.447 0 00-15.39-23.54v1.5h1.793v29.89a3.982 3.982 0 003.982 3.981h30.226v42.042a5.52 5.52 0 005.517 5.512h21.801c8.336-2.875 14.35-10.776 14.35-20.078" fill="#8c99aa" mask="url(#b)"/><path d="M350.31 199.167h-.76c-3.353-11.545-13.987-19.991-26.613-19.991a27.577 27.577 0 00-14.95 4.397c-2.803-18.188-18.478-32.132-37.453-32.132-17.031 0-31.441 11.223-36.24 26.675-2.162-.58-4.424-.92-6.77-.92-12.997 0-23.741 9.527-25.712 21.971h-4.244c-10.701 0-19.456 8.755-19.456 19.458v1.432c0 10.701 8.755 19.458 19.456 19.458H350.31c10.701 0 19.458-8.757 19.458-19.458v-1.432c0-10.703-8.757-19.458-19.458-19.458" fill="#fff" mask="url(#b)"/><path d="M350.31 241.309h-23.29v-3.587h23.291c9.74 0 17.665-7.922 17.665-17.665v-1.432c0-9.742-7.925-17.665-17.665-17.665h-2.11l-.374-1.293c-3.195-11.01-13.43-18.698-24.89-18.698-4.954 0-9.787 1.42-13.981 4.113l-2.322 1.49-.419-2.724c-2.733-17.738-17.738-30.613-35.678-30.613a36.093 36.093 0 00-27.655 12.867 36.424 36.424 0 00-3.905 5.64 36.109 36.109 0 00-2.97 6.908l-.512 1.647-1.664-.447c-2.121-.57-4.24-.86-6.306-.86-11.995 0-22.062 8.603-23.937 20.457l-.242 1.513h-5.775c-9.74 0-17.664 7.923-17.664 17.665v1.432c0 9.743 7.924 17.665 17.664 17.665h85.236v3.587H197.57c-11.717 0-21.251-9.532-21.251-21.252v-1.432c0-11.72 9.534-21.252 21.251-21.252h2.753c2.74-12.82 13.946-21.97 27.2-21.97 1.842 0 3.714.198 5.592.59a39.738 39.738 0 012.733-6.005 40.077 40.077 0 014.292-6.198 39.665 39.665 0 0130.396-14.142c18.85 0 34.755 12.93 38.746 31.101a29.366 29.366 0 0113.655-3.367c12.592 0 23.889 8.16 27.928 19.999 11.461.296 20.697 9.71 20.697 21.244v1.432c0 11.72-9.535 21.252-21.252 21.252" fill="#8c99aa" mask="url(#b)"/><path d="M243.309 190.592h-3.587c0-6.46-5.254-11.713-11.71-11.713v-3.587c8.433 0 15.297 6.863 15.297 15.3M80.006 241.309h391.746v-3.587H80.006zm-10.909 0h6.55v-3.587h-6.55zm406.393 0h14.467v-3.587h-14.468z" fill="#8c99aa" mask="url(#b)"/><path d="M343.07 237.26V51.666a8.04 8.04 0 00-8.039-8.042H216.195a8.04 8.04 0 00-8.04 8.042v185.596z" fill="#fff" mask="url(#b)"/><path d="M208.155 64.467V50.385a6.762 6.762 0 016.762-6.76H336.31a6.76 6.76 0 016.76 6.76v14.082z" fill="#e6ebef" mask="url(#b)"/><path d="M209.95 238.54h-3.588V50.383c0-4.715 3.836-8.556 8.554-8.556h121.395c4.715 0 8.553 3.84 8.553 8.556v93.364h-3.587V50.384a4.975 4.975 0 00-4.966-4.969H214.916a4.975 4.975 0 00-4.967 4.97z" fill="#8c99aa" mask="url(#b)"/><path d="M208.156 66.624H343.07v-3.587H208.156zm15.491-9.639h5.4v-3.587h-5.4zm12.499 0h5.4v-3.587h-5.4zm12.497 0h5.397v-3.587h-5.397z" fill="#8c99aa" mask="url(#b)"/><path d="M226.23 119.355h98.767v-38.96H226.23zm-1.208 114.765h98.768v-27.626h-98.768z" fill="#dde9f2" mask="url(#b)"/><path d="M226.239 187.832h30.03v-38.959h-30.03zm35.563 0h30.033v-38.959h-30.033zm35.564 0h30.032v-38.959h-30.032z" fill="#e6ebef" mask="url(#b)"/><path d="M254.624 133.47h41.996v-3.586h-41.996z" fill="#8c99aa" mask="url(#b)"/><path d="M269.237 116.711a3.2 3.2 0 00-3.19 3.19v-3.348a3.2 3.2 0 00-3.19-3.19 3.198 3.198 0 00-3.19 3.19v-3.35a3.202 3.202 0 00-3.19-3.19 3.202 3.202 0 00-3.192 3.19v-10.137a3.2 3.2 0 00-3.19-3.192 3.2 3.2 0 00-3.19 3.192v20.085h-4.498c-1.194 0-2.16.966-2.16 2.157v14.204c0 1.14.665 2.176 1.7 2.655l2.616 1.207a2.926 2.926 0 011.7 2.657v6.148h21.228v-6.937c0-.694.278-1.356.773-1.841l3.247-3.176a3.05 3.05 0 00.916-2.181v-18.143a3.2 3.2 0 00-3.19-3.19" fill="#fff" mask="url(#b)"/><path d="M248.56 128.941h-3.586v-25.876a4.99 4.99 0 014.983-4.984 4.99 4.99 0 014.984 4.984v21.184h-3.587v-21.184c0-.77-.627-1.397-1.397-1.397-.756 0-1.396.639-1.396 1.397z" fill="#8c99aa" mask="url(#b)"/><path d="M261.323 118.654h-3.587v-5.45a1.397 1.397 0 00-2.796 0v5.45h-3.587v-5.45a4.99 4.99 0 014.986-4.983 4.988 4.988 0 014.984 4.983z" fill="#8c99aa" mask="url(#b)"/><path d="M267.702 124.25h-3.587v-7.698c0-.756-.64-1.397-1.396-1.397s-1.397.641-1.397 1.397v7.698h-3.587v-7.698a4.99 4.99 0 014.984-4.984 4.99 4.99 0 014.983 4.984z" fill="#8c99aa" mask="url(#b)"/><path d="M269.148 152.18h-3.587v-6.938c0-1.17.478-2.305 1.313-3.123l3.245-3.176c.241-.236.378-.564.378-.899v-18.143a1.4 1.4 0 00-1.4-1.398c-.77 0-1.393.628-1.393 1.398v3.006h-3.587v-3.006a4.99 4.99 0 014.98-4.985 4.992 4.992 0 014.987 4.985v18.143a4.862 4.862 0 01-1.457 3.463l-3.245 3.176a.78.78 0 00-.234.56zm-21.23 0h-3.587v-6.151c0-.44-.256-.842-.655-1.026l-2.618-1.208a4.73 4.73 0 01-2.74-4.282v-14.205a3.958 3.958 0 013.95-3.953h4.5v3.587h-4.5a.367.367 0 00-.364.366v14.205c0 .44.258.841.658 1.025l2.616 1.208a4.726 4.726 0 012.74 4.283z" fill="#8c99aa" mask="url(#b)"/><path d="M243.303 238.57h27.146v-91.897h-27.146z" fill="#f0f4f7" mask="url(#b)"/><path d="M253.148 238.57h17.301v-91.897h-17.3z" fill="#dde9f2" mask="url(#b)"/><path d="M272.242 238.57h-3.587v-90.105h-23.561v90.105h-3.587v-93.692h30.735z" fill="#8c99aa" mask="url(#b)"/><path d="M339.508 179.427l23.602-4.36a44.566 44.566 0 0018.239 3.91c24.721 0 44.76-20.039 44.76-44.76 0-24.719-20.039-44.76-44.76-44.76-24.719 0-44.76 20.041-44.76 44.76 0 8.728 2.537 16.85 6.858 23.734z" fill="#dde9f2" mask="url(#b)"/><path d="M363.84 173.43c5.575 2.49 11.464 3.752 17.51 3.752 23.69 0 42.967-19.274 42.967-42.965 0-23.693-19.277-42.966-42.967-42.966s-42.967 19.273-42.967 42.966c0 8.042 2.279 15.92 6.583 22.78l.373.59-3.596 19.602 21.588-3.988zm-22.28-15.125c-4.426-7.291-6.764-15.606-6.764-24.088 0-25.67 20.885-46.553 46.554-46.553 25.67 0 46.554 20.883 46.554 46.553 0 25.669-20.884 46.552-46.554 46.552a46.181 46.181 0 01-18.456-3.838l-25.616 4.732z" fill="#8c99aa" mask="url(#b)"/><path d="M381.35 168.998c-18.641 0-33.754-15.472-33.754-34.555 0-19.085 15.113-34.554 33.753-34.554s33.753 15.47 33.753 34.554c0 19.083-15.113 34.555-33.753 34.555" fill="#fff" mask="url(#b)"/><path d="M391.809 150.986l-9.95-5.067a.655.655 0 00-.617.007l-9.817 5.323a.663.663 0 01-.97-.686l1.745-11.03a.663.663 0 00-.198-.583l-8.097-7.69a.664.664 0 01.354-1.136l11.028-1.748c.215-.034.4-.17.493-.368l4.814-10.077a.66.66 0 011.186-.015l5.072 9.948a.654.654 0 00.504.354l11.07 1.464c.545.071.77.736.382 1.126l-7.896 7.896a.67.67 0 00-.182.588l2.03 10.981c.1.54-.461.961-.951.713" fill="#f0f4f7" mask="url(#b)"/><g fill="#8c99aa"><path d="M366.802 131.538l6.435 6.112a2.45 2.45 0 01.736 2.152l-1.387 8.776 7.8-4.23a2.456 2.456 0 012.284-.031l7.908 4.027-1.609-8.724a2.442 2.442 0 01.677-2.183l6.275-6.277-8.8-1.162a2.453 2.453 0 01-1.868-1.323l-4.032-7.903-3.821 8.009a2.458 2.458 0 01-1.832 1.367zm4.306 21.586c-.495 0-.99-.15-1.415-.452a2.438 2.438 0 01-1.007-2.391l1.652-10.44-7.668-7.28a2.435 2.435 0 01-.653-2.506 2.436 2.436 0 011.958-1.7l10.445-1.655 4.553-9.544a2.448 2.448 0 012.188-1.396h.032c.925 0 1.762.512 2.185 1.34l4.802 9.418 10.481 1.385c.93.122 1.698.753 2.004 1.643.304.892.079 1.86-.586 2.527l-7.478 7.478 1.923 10.397a2.435 2.435 0 01-.947 2.416 2.435 2.435 0 01-2.582.217l-9.422-4.797-9.293 5.041c-.368.201-.77.3-1.172.3zm8.44-68.778h3.587v-7.669h-3.587z" mask="url(#b)"/><path d="M379.548 86.508h3.587V74.845h-3.587zm15.935 2.094l-3.465-.928 1.51-5.631 3.464.927zm11.382 5.219l-3.106-1.793 5.832-10.099 3.104 1.794zm9.645 7.989l-2.537-2.537 4.125-4.12 2.537 2.534zm7.249 10.214l-1.794-3.106 10.1-5.83 1.794 3.106zm4.133 11.786l-.48-3.553 5.63-.763.481 3.556zm13.056 12.426l-11.662-.002v-3.587l11.662.002zm-8.477 13.846l-5.308-1.509.98-3.448 5.309 1.509zm-.406 15.714l-10.099-5.832 1.794-3.107 10.098 5.833zm-62.907 21.044l-3.465-.934 1.514-5.629 3.465.933zm-16.064.106l-3.107-1.795 5.837-10.099 3.104 1.796zm-8.76-12.967l-2.537-2.54 4.383-4.378 2.537 2.54zm-13.708-8.197l-1.793-3.109 10.103-5.825 1.793 3.106zm-.806-15.691l-.927-3.465 5.686-1.523.928 3.465zm3.594-13.869l-11.662-.004v-3.587l11.662.004zm1.182-12.465l-5.694-1.497.911-3.47 5.694 1.497zm4.353-11.744l-10.099-5.835 1.794-3.106 10.098 5.834zm7.295-10.168l-4.402-4.115 2.449-2.619 4.4 4.113zm9.6-8.029l-5.825-10.105 3.107-1.791 5.825 10.105zm11.341-5.434l-.78-5.629 3.553-.495.78 5.632z" mask="url(#b)"/></g></g></svg>